<svg id="svg" version="1.1" viewBox="0 0 300 163.5" width="300" height="163.5" xmlns="http://www.w3.org/2000/svg"><svg xmlns="http://www.w3.org/2000/svg"><defs><clipPath id="clip-1"><rect x="0" y="0" transform="scale(0.14648,0.14651)" width="2048" height="1116" fill="none"/></clipPath><linearGradient x1="53.59863" y1="114.97244" x2="107.10938" y2="52.25319" gradientUnits="userSpaceOnUse" id="color-1"><stop offset="0" stop-color="#06305e"/><stop offset="1" stop-color="#205e94"/></linearGradient><linearGradient x1="74.98345" y1="93.41066" x2="115.79312" y2="41.6317" gradientUnits="userSpaceOnUse" id="color-2"><stop offset="0" stop-color="#177f5a"/><stop offset="1" stop-color="#3ca876"/></linearGradient></defs><g clip-path="url(#clip-1)" fill="none" fill-rule="nonzero" stroke="none" stroke-width="1" stroke-linecap="butt" stroke-linejoin="miter" stroke-miterlimit="10" stroke-dasharray="" stroke-dashoffset="0" font-family="none" font-weight="none" font-size="none" text-anchor="none" style="mix-blend-mode: normal"><path d="M0,0h300v163.5h-300z" fill="#ffffff"/><path d="M81.01377,37.51724c2.07319,1.06641 4.28569,2.4273 6.30205,3.63597c7.53223,4.51486 15.32256,8.7052 22.82593,13.25713c-1.60283,1.42931 -3.61655,3.57854 -5.1375,5.12534l-24.01187,-14.02027c-3.79629,2.44005 -8.66382,5.1145 -12.61611,7.42108c-6.40767,3.77867 -12.84243,7.51133 -19.30356,11.1977l-0.00967,37.44546l21.01685,12.27173c3.60601,2.10953 7.4603,4.28045 10.9957,6.46938c3.04937,-1.96713 7.27192,-4.28894 10.44873,-6.15645l21.53364,-12.63506l0.01201,-15.01783l-0.00337,-14.15594c2.33716,-2.37192 4.68823,-4.73022 7.05322,-7.07445l0.00454,40.28488l-39.04907,22.90685c-4.24468,-2.70244 -9.46348,-5.59548 -13.84717,-8.15947l-25.24087,-14.76935c0.11089,-5.15421 0.02402,-10.61021 0.02534,-15.78317l0.00454,-29.45872c12.87524,-7.7538 26.13735,-15.07247 38.99663,-22.78481z" fill="url(#color-1)"/><path d="M222.99609,81.11006l10.51025,-0.01802c4.5542,0.00674 9.00732,0.55452 12.32813,3.95521c4.65234,4.76406 4.39893,12.98404 -0.26367,17.56482c-4.37988,3.98143 -8.98389,3.76607 -14.43604,3.76343l-8.12109,-0.0126c-0.09229,-8.38948 0.00146,-16.85749 -0.01758,-25.25284z" fill="#1c845d"/><path d="M229.25684,86.00422c3.64453,-0.01538 8.73779,-0.57386 11.45947,2.12316c3.09814,3.06987 2.90332,8.14057 -0.01172,11.227c-3.0249,2.58948 -7.54687,2.0354 -11.42432,2.02002z" fill="#ffffff"/><path d="M118.91895,51.10855c3.16626,-0.07399 6.72129,-0.00117 9.91289,0.00117c-2.34023,2.45631 -5.02573,5.02543 -7.44258,7.43222l-14.0729,14.0147c-8.62705,8.59181 -17.51221,17.7207 -26.27021,26.11898l-9.6063,-9.57647c-2.50283,-2.4106 -5.06543,-5.05649 -7.53311,-7.52452c1.17056,-1.36455 3.57363,-3.62879 4.90063,-4.95379c3.83789,3.55363 8.42358,8.40648 12.23232,12.19745z" fill="url(#color-2)"/><path d="M198.17578,81.07549c6.15674,0.21434 13.66992,0.02608 19.92334,-0.00029l-0.00439,4.81387l-13.82373,0.0063c0.03516,1.73257 0.02344,3.52536 0.03516,5.26306l12.06445,-0.00586l0.01025,4.67294l-11.33936,0.01201c-0.19629,0.00352 -0.36768,0.04644 -0.56104,0.08219c-0.37939,0.63305 -0.21387,4.66883 -0.21973,5.6031l14.43164,-0.01699l-0.00146,4.85665l-20.50928,0.00864z" fill="#1c845d"/><path d="M187.72412,81.06392c2.05664,0.09611 4.64941,0.02857 6.74707,0.03208c-2.96777,4.08779 -5.96924,8.15185 -9.00146,12.19174c3.06885,4.35209 6.46143,8.71385 9.59473,13.07766l-3.09668,0.00337l-4.00195,0.00161c-2.14893,-2.71855 -4.11475,-5.79356 -6.25635,-8.58873c-2.05957,2.76294 -4.10156,5.7436 -6.06592,8.57848l-7.17041,0.00396c3.2168,-4.29861 6.40723,-8.61715 9.57129,-12.95547c-3.05859,-3.81031 -6.03223,-8.36692 -9.03076,-12.29766l2.32324,-0.02168l4.67871,0.00791c1.70068,2.09356 4.19678,5.7729 5.77295,8.00183c1.92041,-2.35932 3.99463,-5.51139 5.93555,-8.03509z" fill="#1c845d"/><path d="M139.24219,81.08999l15.99023,0.00776l0.0249,4.80274l-13.73101,-0.01773l0.03706,6.3976l12.12803,-0.00879l0.00732,3.87258c0.02344,0.42487 0.05273,0.54412 -0.12451,0.92489c-1.03564,0.1153 -3.10693,0.05846 -4.24072,0.05714l-7.8041,-0.01348l0.02358,9.24581l-6.21313,0.00835l-0.00322,-25.25416z" fill="#1c845d"/><path d="M162.99756,81.09073l2.3877,-0.00103v25.26895l-4.09717,0.00425l-2.10937,0.00542c0.03076,-8.42128 0.01904,-16.84255 -0.03662,-25.26353z" fill="#1c845d"/><path d="M196.42969,62.45392c3.40723,0.10636 8.58105,-0.66543 11.14014,1.84773c2.5752,2.5278 2.39648,6.66863 -0.05566,9.24449c-2.74512,2.40137 -7.53369,1.78268 -11.13281,1.76158c0.09668,-4.2491 -0.0249,-8.5776 0.04834,-12.8538z" fill="#154475"/><path d="M199.42383,64.95257c2.99268,-0.04014 6.74561,-0.30532 6.88037,3.82408c0.04395,1.35063 -0.35889,2.12447 -1.26855,3.09786c-1.88086,1.23284 -3.4043,0.96503 -5.60596,0.93456c0.06738,-2.5215 0.00146,-5.31463 -0.00586,-7.8565z" fill="#ffffff"/><path d="M153.98291,62.30039c1.83252,-0.12175 3.35156,-0.02051 4.99072,0.95141c1.4707,0.88094 2.521,2.32079 2.91064,3.99037c1.00342,4.24997 -1.56299,7.36776 -5.64258,8.2314c-1.80176,0.20042 -3.68408,-0.06549 -5.23242,-1.05293c-1.48682,-0.94203 -2.52979,-2.44327 -2.89453,-4.16442c-0.36328,-1.78136 0.00586,-3.63421 1.02539,-5.1397c1.21875,-1.76627 2.83447,-2.43243 4.84277,-2.81613z" fill="#154475"/><path d="M153.98291,64.99184c1.40918,-0.37974 2.91357,0.03165 3.93457,1.07579c1.01953,1.044 1.396,2.55784 0.98438,3.95828c-0.41309,1.4003 -1.5498,2.46862 -2.97217,2.79342c-2.1416,0.48874 -4.28027,-0.82688 -4.81055,-2.95912c-0.53027,-2.13239 0.74268,-4.29686 2.86377,-4.86837z" fill="#ffffff"/><path d="M223.771,62.46975c2.47412,0.07355 5.04785,-0.19104 7.49561,0.24027c2.73486,0.48171 4.14551,2.92644 3.52148,5.57966c-0.32812,1.39971 -1.2583,2.10045 -2.43018,2.80675l2.8916,4.18141l-1.72119,0.03106l-1.64502,-0.00982l-2.45801,-3.64168l-2.63525,-0.00322c-0.01465,1.1782 0.03516,2.46085 0.06006,3.64681l-3.09961,0.00454c0.07617,-4.20236 0.00879,-8.61276 0.02051,-12.83578z" fill="#154475"/><path d="M226.78125,64.92635c2.22803,-0.04131 7.18945,0.09567 4.3916,3.75977c-1.33154,0.81354 -2.87109,0.59452 -4.38574,0.52683c0.05566,-1.35649 0.00732,-2.91502 -0.00586,-4.2866z" fill="#ffffff"/><path d="M165.11572,62.4863l1.64795,0.00293c2.05371,2.57249 4.125,5.1312 6.2124,7.67615l-0.00732,-7.68054l2.96338,0.00733l0.00879,7.96183c0.00586,1.38199 0.08057,3.34413 -0.05566,4.68011c-0.26367,0.23822 -0.36914,0.16203 -0.7998,0.17771l-1.77979,-0.01626c-1.98486,-2.57249 -4.1499,-5.12329 -6.17578,-7.69226l0.04541,7.70193l-3.02344,0.00718c0.0249,-2.63915 0.03076,-5.27844 0.01611,-7.91774c-0.00146,-1.40308 -0.06299,-3.36874 0.07178,-4.72714c0.29004,-0.23895 0.43066,-0.16365 0.87598,-0.18123z" fill="#154475"/><path d="M211.53076,62.49158l9.81299,0.01187l0.00586,2.40957l-6.81299,-0.00615l0.01172,2.65058l5.99854,0.01802l0.01172,2.39947c-1.86768,0.03267 -3.82031,0.00557 -5.69531,0.00674l-0.25488,0.14065c-0.14209,0.5743 -0.07324,2.10206 -0.06592,2.76163l7.10596,0.00381l-0.00879,2.41236l-10.11035,0.00982z" fill="#154475"/><path d="M182.53564,62.30771c2.17676,-0.18152 3.58887,0.17669 5.53125,1.067c-0.19922,0.60902 -0.71631,1.77975 -0.97705,2.41353c-1.51904,-0.84753 -5.43311,-2.09532 -6.08057,0.36172c0.7002,1.92259 7.57178,1.394 7.67139,5.04579c0.09521,3.42632 -2.77441,4.17101 -5.58252,4.34271c-2.12988,-0.06959 -3.49365,-0.39454 -5.24707,-1.60101l1.02832,-2.27816c1.43262,0.82688 6.35449,2.7795 6.73535,-0.00747c-0.43359,-0.99931 -2.23389,-1.3855 -3.22119,-1.59412c-3.05566,-0.6458 -5.73779,-2.57219 -3.59473,-5.8523c0.88623,-1.3581 2.20313,-1.61009 3.73682,-1.89768z" fill="#154475"/><path d="M140.81953,62.29702c0.13242,-0.00659 0.26484,-0.01231 0.39727,-0.01714c2.57769,-0.09904 4.08442,0.45915 5.95459,2.19201l-1.98193,1.9157c-0.79102,-0.74308 -1.54351,-1.34697 -2.64419,-1.50139c-2.31079,-0.32392 -4.44478,1.04077 -4.71372,3.39263c-0.13828,1.15739 0.19541,2.32152 0.92578,3.22986c0.68027,0.8427 1.68062,1.36397 2.76079,1.43883c1.49985,0.11281 2.51426,-0.55262 3.59385,-1.46417l0.0189,-0.00923c0.38584,0.04424 1.69629,1.3414 2.09766,1.70327c-2.53418,2.52561 -6.33193,3.29227 -9.42554,1.28734c-1.5085,-0.97104 -2.55791,-2.51345 -2.90757,-4.27327c-0.85488,-4.35311 1.81582,-7.14902 5.92412,-7.89444z" fill="#154475"/><path d="M257.71582,62.48381l0.2373,0.07442c0.18164,0.48874 0.11426,1.79381 0.10986,2.37969l-4.07373,0.00469l0.02197,10.35705l-3.0542,0.00674l0.00586,-3.44551l-0.01172,-6.91388l-4.1001,-0.01113l-0.00879,-2.43199z" fill="#154475"/><path d="M253.46191,99.49561c1.95996,-0.50002 3.95654,0.67319 4.47363,2.62875c0.51709,1.95555 -0.63867,3.96238 -2.58984,4.49654c-1.97461,0.54075 -4.01221,-0.63261 -4.53516,-2.61234c-0.52295,-1.97987 0.66797,-4.00678 2.65137,-4.51295z" fill="#1c845d"/><path d="M190.65527,62.47956l2.93115,0.02359l0.0293,12.79871l-3.05127,0.00542c0.02783,-3.3708 -0.03955,-6.74628 -0.01904,-10.11737c0.00586,-0.83655 -0.04834,-1.9097 0.10986,-2.71035z" fill="#154475"/><path d="M242.28076,62.50374l2.98096,-0.00938l0.01318,12.81087l-2.98828,0.00513z" fill="#154475"/></g></svg></svg>